<svg xmlns="http://www.w3.org/2000/svg" xmlns:svg="http://www.w3.org/2000/svg" xmlns:xlink="http://www.w3.org/1999/xlink" id="svg870" width="222mm" height="222mm" version="1.1"><defs id="defs840"><linearGradient id="linearGradient10623" x1="44.948" x2="54.103" y2="46.797" gradientTransform="scale(1,0.54545)" gradientUnits="userSpaceOnUse"><stop id="stop10619" offset="0" stop-color="#fff" stop-opacity=".744" style="stop-color:#fff;stop-opacity:.79827088"/><stop id="stop10621" offset="1" stop-color="#fff" stop-opacity="0"/></linearGradient><linearGradient id="linearGradient4011" x1="44.948" x2="54.103" y2="46.797" gradientTransform="scale(1,0.54545)" gradientUnits="userSpaceOnUse"><stop id="stop824" offset="0" stop-color="#fff" stop-opacity=".744"/><stop id="stop826" offset="1" stop-color="#fff" stop-opacity="0"/></linearGradient><linearGradient id="linearGradient4021" x1="52.017" x2="42.868" y1="96" y2="41.838" gradientTransform="matrix(1,0,0,0.5,0,48)" gradientUnits="userSpaceOnUse"><stop id="stop829" offset="0" stop-opacity=".5"/><stop id="stop831" offset="1" stop-color="#818080" stop-opacity="0"/></linearGradient><filter id="filter4055" width="1.06" height="1.24" x="-.03" y="-.12"><feGaussianBlur id="feGaussianBlur834" stdDeviation="1.2"/></filter><filter id="filter4059" width="1.06" height="1.244" x="-.03" y="-.122"><feGaussianBlur id="feGaussianBlur837" stdDeviation="1.22"/></filter><linearGradient id="linearGradient4011-3" x1="44.948" x2="54.103" y2="46.797" gradientTransform="scale(1,0.54545)" gradientUnits="userSpaceOnUse"><stop id="stop824-0" offset="0" stop-color="#fff" stop-opacity=".744"/><stop id="stop826-0" offset="1" stop-color="#fff" stop-opacity="0"/></linearGradient><filter id="filter4059-2" width="1.06" height="1.244" x="-.03" y="-.122"><feGaussianBlur id="feGaussianBlur837-2" stdDeviation="1.22"/></filter><filter id="filter4055-8" width="1.06" height="1.24" x="-.03" y="-.12"><feGaussianBlur id="feGaussianBlur834-6" stdDeviation="1.2"/></filter><linearGradient id="linearGradient9786" x1="50.775" x2="51.142" y1="2.538" y2="38.035" gradientTransform="matrix(1.0435462,0,0,1.0595514,-2.4454178,-4.8323028)" gradientUnits="userSpaceOnUse" xlink:href="#linearGradient10623"/><filter style="color-interpolation-filters:sRGB" id="filter10270" width="1.073" height="1.19" x="-.036" y="-.095"><feGaussianBlur id="feGaussianBlur10272" stdDeviation="1.519"/></filter></defs><g id="g858" fill="none" stroke="#000" stroke-width="4" display="none" transform="translate(-6.2498398,-15.62326)"><path id="path854" d="M 64,0 V 26 H 32 V 48 H 64 V 70 H 32 v 26"/><rect id="rect856" width="96" height="96" x="0" y="0" stroke-linecap="round" stroke-linejoin="round" rx="16" ry="16"/></g><g id="layer2" style="display:inline" transform="translate(-8.2498398,-17.62326)"><path style="fill:#1872a2;fill-opacity:1;stroke:none;stroke-width:7.80854px;stroke-linecap:butt;stroke-linejoin:miter;stroke-opacity:1" id="path1862" d="m 273.74018,783.17242 h 374.80983 c 70.62488,0.34935 123.26669,-58.57645 124.63592,-124.63593 V 146.55103 C 772.05517,87.963275 716.97085,32.879 658.38315,31.74818 L 523.61342,33.552702 V 236.5747 H 273.74018 v 171.47552 l 249.87324,0.31234 V 580.15041 H 273.74018 v 203.02201"/><path style="fill:#ffc019;fill-opacity:1;stroke:none;stroke-width:7.80854px;stroke-linecap:butt;stroke-linejoin:miter;stroke-opacity:1" id="path1409" d="M 523.61342,33.552702 V 236.57471 l -249.87308,-0.31257 -1.6e-4,172.10043 h 249.87324 v 171.47551 l -249.87324,0.31234 V 782.86008 H 134.37483 C 90.568318,783.19732 19.434743,719.77138 21.874061,670.35932 V 154.95936 C 23.807533,99.77312 76.891673,30.573013 145.39109,31.442326 Z"/><path style="fill:none;stroke:#000;stroke-width:31.2342;stroke-linecap:butt;stroke-linejoin:miter;stroke-miterlimit:4;stroke-dasharray:none;stroke-opacity:1" id="path1405" d="M 523.61342,33.552702 V 236.5747 H 273.74018 v 171.47552"/><path style="fill:none;stroke:#000;stroke-width:31.2342;stroke-linecap:butt;stroke-linejoin:miter;stroke-miterlimit:4;stroke-dasharray:none;stroke-opacity:1" id="path1407" d="M 523.61342,408.36256 V 580.15041 H 273.74018 v 203.02201"/><rect style="fill:none;stroke:#000;stroke-width:31.2342;stroke-miterlimit:4;stroke-dasharray:none;stop-color:#000" id="rect1167" width="749.62" height="749.62" x="23.867" y="33.24" ry="134.661"/><rect style="mix-blend-mode:normal;fill:url(#linearGradient9786);fill-opacity:1;stroke:none;stroke-width:5.25759;stroke-miterlimit:4;stroke-dasharray:none;filter:url(#filter10270);stop-color:#000" id="rect9746" width="100.357" height="38.384" x="-.358" y="-2.713" ry="18.272" transform="matrix(7.892728,0,0,5.6019403,4.0555185,7.4118273)"/></g></svg>