<svg xmlns="http://www.w3.org/2000/svg" xmlns:svg="http://www.w3.org/2000/svg" id="svg2880" width="210mm" height="210mm" version="1.1"><title id="title4176">GNU Social Image Logo</title><metadata id="metadata2885"/><g id="layer1" transform="translate(-119.19595,359.77011)"><g id="g4644" transform="matrix(7.4177891,0,0,7.4177891,-41.453308,-6325.1811)"><path style="fill:#a22430;fill-opacity:1;stroke:none" id="path4639" d="m 96.925831,881.563 c -3.735488,21.79036 -38.392563,21.90151 -38.392563,21.90151 0,0 21.203396,-6.56966 19.750703,-22.34174 -1.327052,-14.408 18.64186,0.44023 18.64186,0.44023 z"/><rect id="rect3328" width="89.521" height="77.451" x="27.053" y="805.254" ry="12.913" style="fill:#a22430;fill-opacity:1;stroke:none"/><path id="path4512" d="m 75.035672,851.19107 18.049506,0 c 0,0 0,-8.6579 0,0 0,8.65789 -3.668599,22.15834 -20.837642,21.27788 -17.169046,-0.88046 -20.984391,-14.38091 -21.131135,-23.47904 -0.146742,-9.09813 2.647404,-20.32513 22.892066,-19.81044 17.315785,0.44023 18.929973,16.28858 18.929973,16.28858 l -8.364408,-0.14674 c 0,0 -1.907672,-8.6579 -12.03301,-8.21766 -10.125331,0.44023 -11.446027,2.20115 -11.446027,12.91347 0,10.71231 4.695277,14.39422 11.886261,14.67439 11.299291,0.44023 10.272082,-5.86976 10.272082,-5.86976 l -5.282787,0.29349 z" style="fill:#fff;fill-opacity:1;stroke:none"/><path id="path4516" d="m 84.147497,815.7524 c 1.37154,-1.22326 7.263833,5.94313 7.410571,8.73126 0.215959,4.10316 0.324743,11.56015 -11.886259,11.44603 -7.850803,-0.0734 -8.217663,-5.42952 -8.217663,-5.42952 0,0 -0.220117,-4.62244 4.035458,-4.62244 4.25557,0 2.858324,3.00825 6.236624,3.00825 5.062667,0 4.273427,-2.05348 4.402315,-4.69581 0.293494,-6.0165 -3.352577,-7.21451 -1.981046,-8.43777 z" style="fill:#fff;fill-opacity:1;stroke:none"/><path style="fill:#fff;fill-opacity:1;stroke:none" id="path4611" d="m 59.19991,815.7524 c -1.371534,-1.22326 -7.410569,4.62243 -7.410569,8.73126 0,4.10883 -0.324741,11.56015 11.886261,11.44603 7.850803,-0.0734 8.217663,-5.42952 8.217663,-5.42952 0,0 0.220117,-4.62244 -4.035458,-4.62244 -4.255574,0 -2.858321,3.00825 -6.236621,3.00825 -5.062668,0 -4.273428,-2.05348 -4.402318,-4.69581 -0.293491,-6.0165 3.352577,-7.21451 1.981042,-8.43777 z"/></g></g></svg>